<?xml version="1.0" ?><!DOCTYPE svg  PUBLIC '-//W3C//DTD SVG 1.1//EN'  'http://www.w3.org/Graphics/SVG/1.1/DTD/svg11.dtd'><svg height="512pt" version="1.1" viewBox="0 0 512 512" width="512pt" xmlns="http://www.w3.org/2000/svg"><g id="#4d76a1ff"><path d=" M 125.58 40.53 C 157.70 22.70 194.17 12.44 230.97 12.11 C 254.69 11.58 278.48 14.90 301.13 21.96 C 309.16 24.67 317.25 27.22 325.30 29.88 C 325.42 29.98 325.65 30.20 325.76 30.30 C 327.96 32.71 331.20 33.53 334.00 34.97 C 366.47 51.19 395.28 74.87 417.03 103.97 C 453.56 151.65 471.00 213.14 466.27 272.92 C 463.50 309.76 452.58 346.02 434.09 378.03 C 415.97 409.30 390.97 436.77 360.86 456.86 C 333.19 475.81 301.13 488.17 268.00 493.16 C 262.01 494.04 256.05 495.17 250.02 495.60 C 238.62 495.97 227.14 496.38 215.82 494.68 C 209.50 494.41 203.30 493.11 197.00 492.71 C 181.06 489.51 165.28 485.03 150.18 478.93 C 101.96 459.27 61.24 422.55 35.56 377.36 C 14.65 340.92 3.50 299.04 3.03 257.05 C 2.35 210.78 14.69 164.32 38.78 124.76 C 59.89 89.90 89.98 60.44 125.58 40.53 M 187.43 170.57 C 181.43 172.00 175.01 175.49 173.01 181.72 C 178.95 182.93 185.55 184.58 189.19 189.88 C 192.59 195.23 193.32 201.77 193.82 207.95 C 194.46 222.25 195.19 236.76 192.43 250.90 C 191.47 254.80 190.42 259.41 186.72 261.64 C 182.54 263.71 178.20 260.65 175.22 257.88 C 167.51 250.37 161.88 241.07 156.20 232.01 C 146.97 217.19 139.28 201.46 132.65 185.33 C 130.57 179.87 124.67 176.78 119.03 176.78 C 104.02 176.90 89.00 176.98 73.99 177.08 C 70.07 177.24 65.42 177.56 62.70 180.77 C 60.95 183.84 62.17 187.58 63.45 190.60 C 70.24 205.88 77.59 220.92 85.40 235.72 C 100.63 264.14 117.18 292.21 138.55 316.52 C 156.95 337.62 182.19 353.18 209.96 357.90 C 220.85 360.01 231.98 359.04 242.99 359.29 C 247.18 359.47 251.62 358.62 254.93 355.89 C 257.71 353.46 258.25 349.52 258.34 346.04 C 258.50 338.62 259.32 331.07 262.21 324.18 C 263.98 320.06 267.17 315.81 271.93 315.20 C 276.44 314.88 280.26 317.86 283.50 320.62 C 292.75 329.02 299.92 339.40 309.07 347.90 C 316.09 354.51 325.11 359.85 334.99 360.02 C 350.63 359.60 366.28 359.56 381.93 359.26 C 387.32 358.89 393.54 357.45 396.76 352.68 C 399.31 348.58 397.43 343.53 395.24 339.72 C 388.37 327.44 378.48 317.24 368.60 307.37 C 361.92 300.70 354.60 294.67 348.23 287.68 C 345.12 284.21 342.06 279.79 343.04 274.88 C 344.17 269.25 347.83 264.60 351.05 260.01 C 362.43 244.75 374.61 230.04 384.96 214.04 C 389.76 206.42 394.66 198.66 397.19 189.95 C 398.12 186.52 398.75 181.96 395.53 179.52 C 390.42 176.07 383.88 176.94 378.04 177.07 C 362.70 177.20 347.35 177.30 332.00 177.37 C 328.83 177.46 325.33 176.85 322.52 178.70 C 319.39 180.81 318.06 184.51 316.75 187.87 C 310.82 202.61 303.87 216.98 295.38 230.43 C 289.54 239.69 283.58 249.05 275.77 256.80 C 273.07 259.22 269.95 262.13 266.06 261.87 C 261.80 260.60 259.74 255.95 258.83 251.94 C 256.95 243.07 258.18 233.96 258.04 224.98 C 257.93 212.28 259.31 199.59 258.79 186.90 C 258.58 181.17 256.77 174.46 250.97 172.04 C 241.16 168.18 230.38 168.48 220.01 168.31 C 209.14 168.35 198.10 168.09 187.43 170.57 Z" fill="#4d76a1" opacity="1.00"/></g><g id="#38587aff"><path d=" M 325.76 30.30 C 338.04 33.88 349.93 38.72 361.85 43.33 C 368.89 46.22 376.10 48.74 382.80 52.36 C 427.56 77.83 462.97 118.75 483.08 166.05 C 501.57 209.25 507.25 257.71 499.84 304.07 C 494.27 339.35 480.95 373.41 460.96 403.02 C 441.04 432.60 414.48 457.72 383.65 475.65 C 354.16 492.58 320.91 503.29 286.91 505.35 C 259.94 505.13 233.28 500.30 206.92 494.94 C 203.61 494.22 200.20 493.87 197.00 492.71 C 203.30 493.11 209.50 494.41 215.82 494.68 C 227.14 496.38 238.62 495.97 250.02 495.60 C 256.05 495.17 262.01 494.04 268.00 493.16 C 301.13 488.17 333.19 475.81 360.86 456.86 C 390.97 436.77 415.97 409.30 434.09 378.03 C 452.58 346.02 463.50 309.76 466.27 272.92 C 471.00 213.14 453.56 151.65 417.03 103.97 C 395.28 74.87 366.47 51.19 334.00 34.97 C 331.20 33.53 327.96 32.71 325.76 30.30 Z" fill="#38587a" opacity="1.00"/></g><g id="#ffffffff"><path d=" M 187.43 170.57 C 198.10 168.09 209.14 168.35 220.01 168.31 C 230.38 168.48 241.16 168.18 250.97 172.04 C 256.77 174.46 258.58 181.17 258.79 186.90 C 259.31 199.59 257.93 212.28 258.04 224.98 C 258.18 233.96 256.95 243.07 258.83 251.94 C 259.74 255.95 261.80 260.60 266.06 261.87 C 269.95 262.13 273.07 259.22 275.77 256.80 C 283.58 249.05 289.54 239.69 295.38 230.43 C 303.87 216.98 310.82 202.61 316.75 187.87 C 318.06 184.51 319.39 180.81 322.52 178.70 C 325.33 176.85 328.83 177.46 332.00 177.37 C 347.35 177.30 362.70 177.20 378.04 177.07 C 383.88 176.94 390.42 176.07 395.53 179.52 C 398.75 181.96 398.12 186.52 397.19 189.95 C 394.66 198.66 389.76 206.42 384.96 214.04 C 374.61 230.04 362.43 244.75 351.05 260.01 C 347.83 264.60 344.17 269.25 343.04 274.88 C 342.06 279.79 345.12 284.21 348.23 287.68 C 354.60 294.67 361.92 300.70 368.60 307.37 C 378.48 317.24 388.37 327.44 395.24 339.72 C 397.43 343.53 399.31 348.58 396.76 352.68 C 393.54 357.45 387.32 358.89 381.93 359.26 C 366.28 359.56 350.63 359.60 334.99 360.02 C 325.11 359.85 316.09 354.51 309.07 347.90 C 299.92 339.40 292.75 329.02 283.50 320.62 C 280.26 317.86 276.44 314.88 271.93 315.20 C 267.17 315.81 263.98 320.06 262.21 324.18 C 259.32 331.07 258.50 338.62 258.34 346.04 C 258.25 349.52 257.71 353.46 254.93 355.89 C 251.62 358.62 247.18 359.47 242.99 359.29 C 231.98 359.04 220.85 360.01 209.96 357.90 C 182.19 353.18 156.95 337.62 138.55 316.52 C 117.18 292.21 100.63 264.14 85.40 235.72 C 77.59 220.92 70.24 205.88 63.45 190.60 C 62.17 187.58 60.95 183.84 62.70 180.77 C 65.42 177.56 70.07 177.24 73.99 177.08 C 89.00 176.98 104.02 176.90 119.03 176.78 C 124.67 176.78 130.57 179.87 132.65 185.33 C 139.28 201.46 146.97 217.19 156.20 232.01 C 161.88 241.07 167.51 250.37 175.22 257.88 C 178.20 260.65 182.54 263.71 186.72 261.64 C 190.42 259.41 191.47 254.80 192.43 250.90 C 195.19 236.76 194.46 222.25 193.82 207.95 C 193.32 201.77 192.59 195.23 189.19 189.88 C 185.55 184.58 178.95 182.93 173.01 181.72 C 175.01 175.49 181.43 172.00 187.43 170.57 Z" fill="#ffffff" opacity="1.00"/></g></svg>